<?xml version="1.0" encoding="UTF-8"?>
<svg width="385px" height="219px" viewBox="0 0 385 219" version="1.1" xmlns="http://www.w3.org/2000/svg" xmlns:xlink="http://www.w3.org/1999/xlink">
    <!-- Generator: Sketch 47 (45396) - http://www.bohemiancoding.com/sketch -->
    <title>Group</title>
    <desc>Created with Sketch.</desc>
    <defs></defs>
    <g id="Page-1" stroke="none" stroke-width="1" fill="none" fill-rule="evenodd">
        <g id="Bamtech_media_logo_Outline_Square_Red_on_Light" transform="translate(0.000000, -280.000000)">
            <g id="Group" transform="translate(0.000000, 280.000000)">
                <polyline id="Fill-1" fill="#10111D" points="275.747 217.572 271.329 217.572 269.258 192.495 269.121 192.495 259.412 217.848 256.881 217.848 247.172 192.495 247.034 192.495 245.009 217.572 240.592 217.572 243.445 185.822 248.966 185.822 258.124 210.348 258.215 210.348 267.372 185.822 272.847 185.822 275.747 217.572"></polyline>
                <polyline id="Fill-2" fill="#10111D" points="302.576 217.572 283.618 217.572 283.618 185.822 302.207 185.822 302.207 189.55 288.082 189.55 288.082 199.028 301.425 199.028 301.425 202.755 288.082 202.755 288.082 213.798 302.576 213.798 302.576 217.572"></polyline>
                <path d="M328.391,192.586 C326.305,190.623 323.483,189.641 319.924,189.641 L314.818,189.641 L314.818,213.706 L319.924,213.706 C323.483,213.706 326.305,212.725 328.392,210.762 C330.907,208.369 332.165,205.347 332.165,201.697 C332.165,198.016 330.907,194.979 328.391,192.586 Z M331.796,213.43 C328.79,216.191 324.833,217.572 319.924,217.572 L310.354,217.572 L310.354,185.822 L319.924,185.822 C324.833,185.822 328.79,187.203 331.796,189.963 C335.079,192.97 336.719,196.881 336.719,201.697 C336.719,206.513 335.079,210.424 331.796,213.43 L331.796,213.43 Z" id="Fill-3" fill="#10111D"></path>
                <polygon id="Fill-4" fill="#10111D" points="344.222 217.572 348.686 217.572 348.686 185.822 344.222 185.822"></polygon>
                <path d="M374.869,205.562 L369.3,191.298 L363.733,205.562 L374.869,205.562 Z M384.347,217.572 L379.377,217.572 L376.111,209.289 L362.491,209.289 L359.224,217.572 L354.53,217.572 L367.46,185.73 L371.372,185.73 L384.347,217.572 L384.347,217.572 Z" id="Fill-5" fill="#10111D"></path>
                <path d="M16.074,204.688 C15.246,204.105 13.926,203.813 12.116,203.813 L8.021,203.813 L8.021,211.912 L12.116,211.912 C13.926,211.912 15.246,211.621 16.074,211.038 C17.147,210.332 17.684,209.274 17.684,207.863 C17.684,206.513 17.147,205.455 16.074,204.688 Z M14.417,191.988 C13.742,191.559 12.638,191.344 11.104,191.344 L8.021,191.344 L8.021,198.66 L10.92,198.66 C12.577,198.66 13.742,198.43 14.417,197.97 C15.46,197.233 15.982,196.221 15.982,194.933 C15.982,193.583 15.46,192.601 14.417,191.988 Z M21.733,215.501 C19.831,216.881 17.117,217.572 13.588,217.572 L0.613,217.572 L0.613,185.822 L11.426,185.822 C14.923,185.822 17.531,186.267 19.248,187.157 C21.948,188.568 23.298,190.792 23.298,193.829 C23.298,195.485 22.845,196.957 21.94,198.246 C21.036,199.534 19.939,200.393 18.651,200.822 L18.651,200.914 C20.675,201.406 22.278,202.31 23.459,203.629 C24.64,204.949 25.23,206.559 25.23,208.461 C25.23,211.467 24.065,213.814 21.733,215.501 L21.733,215.501 Z" id="Fill-6" fill="#DA2945"></path>
                <path d="M48.101,205.378 L44.144,193.967 L40.187,205.378 L48.101,205.378 Z M60.157,217.572 L52.058,217.572 L49.803,211.176 L38.484,211.176 L36.23,217.572 L28.5,217.572 L40.462,185.776 L48.193,185.776 L60.157,217.572 L60.157,217.572 Z" id="Fill-7" fill="#DA2945"></path>
                <polyline id="Fill-8" fill="#DA2945" points="100.79 217.572 93.473 217.572 92.231 195.945 92.139 195.945 85.329 217.572 79.439 217.572 72.583 195.945 72.445 195.945 71.295 217.572 63.979 217.572 66.372 185.822 75.758 185.822 82.384 206.712 82.476 206.712 89.01 185.822 98.443 185.822 100.79 217.572"></polyline>
                <polyline id="Fill-9" fill="#DA2945" points="128.815 191.712 120.624 191.712 120.624 217.572 113.17 217.572 113.17 191.712 104.98 191.712 104.98 185.822 128.815 185.822 128.815 191.712"></polyline>
                <polyline id="Fill-10" fill="#DA2945" points="155.182 217.572 134.201 217.572 134.201 185.822 154.768 185.822 154.768 191.758 141.608 191.758 141.608 198.246 154.032 198.246 154.032 204.182 141.608 204.182 141.608 211.544 155.182 211.544 155.182 217.572"></polyline>
                <path d="M188.591,213.798 C185.799,216.682 181.98,218.123 177.133,218.123 C172.348,218.123 168.375,216.643 165.216,213.683 C162.056,210.723 160.476,206.743 160.476,201.743 C160.476,196.743 162.064,192.762 165.239,189.803 C168.414,186.842 172.378,185.362 177.133,185.362 C179.956,185.362 182.294,185.768 184.15,186.581 C186.006,187.394 187.302,188.184 188.039,188.951 L185.738,195.117 C185.278,194.503 184.25,193.798 182.655,193 C181.06,192.203 179.358,191.804 177.547,191.804 C174.787,191.804 172.509,192.678 170.714,194.427 C168.92,196.175 168.023,198.568 168.023,201.605 C168.023,204.611 168.935,206.989 170.76,208.737 C172.585,210.485 174.848,211.36 177.547,211.36 C181.076,211.36 183.928,210.24 186.106,208.001 L188.591,213.798" id="Fill-11" fill="#DA2945"></path>
                <polyline id="Fill-12" fill="#DA2945" points="221.954 217.572 214.499 217.572 214.499 204.274 201.753 204.274 201.753 217.572 194.299 217.572 194.299 185.822 201.753 185.822 201.753 198.108 214.499 198.108 214.499 185.822 221.954 185.822 221.954 217.572"></polyline>
                <path d="M149.919,11.611 L195.134,11.611 C213.897,11.611 229.111,26.821 229.111,45.588 C229.111,56.527 223.939,66.262 215.908,72.473 C223.939,78.683 229.111,88.413 229.111,99.356 C229.111,118.119 213.897,133.333 195.134,133.333 L149.919,133.333 L149.919,11.611 Z M240.121,99.357 C240.121,92.376 238.474,85.406 235.361,79.201 C234.369,77.225 233.211,75.297 231.922,73.471 L231.217,72.472 L231.922,71.473 C233.213,69.644 234.37,67.716 235.361,65.742 C238.474,59.537 240.121,52.568 240.121,45.588 C240.121,20.783 219.94,0.602 195.134,0.602 L138.911,0.602 L138.911,144.343 L195.134,144.343 C219.94,144.343 240.121,124.162 240.121,99.357 L240.121,99.357 Z" id="Fill-13" fill="#DA2945"></path>
                <polyline id="Fill-14" fill="#DA2945" points="195.122 32.53 169.157 72.427 180.247 77.451 172.859 112.126 198.824 72.328 187.734 67.304 195.122 32.53"></polyline>
            </g>
        </g>
    </g>
</svg>