<svg id="Laag_1" data-name="Laag 1" xmlns="http://www.w3.org/2000/svg" viewBox="0 0 735.81 115.53"><defs><style>.cls-1{fill:#f06c21;}.cls-2{fill:#c6c2bd;}.cls-3{fill:#f1822e;}.cls-4{fill:#e05801;}.cls-5{fill:#635e55;}.cls-6{fill:#868178;}.cls-7{fill:#a7a7a7;}</style></defs><title>logo</title><polygon class="cls-1" points="60.04 46.21 40.04 34.66 60.04 23.11 60.04 46.21"/><polygon class="cls-1" points="40.04 34.66 60.04 23.11 40.04 11.55 40.04 34.66"/><polygon class="cls-2" points="60.04 23.11 40.04 11.55 60.04 0 60.04 23.11"/><polygon class="cls-3" points="60.04 23.11 80.05 11.55 60.04 0 60.04 23.11"/><polygon class="cls-2" points="60.05 69.33 40.05 57.78 60.05 46.23 60.05 69.33"/><polygon class="cls-4" points="60.05 69.33 80.06 57.78 60.05 46.23 60.05 69.33"/><polygon class="cls-1" points="40.05 57.78 60.05 46.23 40.05 34.67 40.05 57.78"/><polygon class="cls-1" points="60.03 92.4 40.02 80.85 60.03 69.3 60.03 92.4"/><polygon class="cls-1" points="40.02 80.85 60.03 69.3 40.02 57.75 40.02 80.85"/><polygon class="cls-5" points="60.06 46.18 40.05 34.63 60.06 23.08 60.06 46.18"/><polygon class="cls-5" points="40.05 57.73 60.06 46.18 40.05 34.63 40.05 57.73"/><polygon class="cls-2" points="40.05 34.63 20.04 23.08 40.05 11.53 40.05 34.63"/><polygon class="cls-2" points="40.05 34.63 60.06 23.08 40.05 11.53 40.05 34.63"/><polygon class="cls-5" points="60.03 92.41 40.02 80.86 60.03 69.31 60.03 92.41"/><polygon class="cls-5" points="40.02 103.96 60.03 92.41 40.02 80.86 40.02 103.96"/><polygon class="cls-2" points="40.02 80.86 60.03 69.31 40.02 57.76 40.02 80.86"/><polygon class="cls-5" points="40.04 57.76 20.02 46.21 40.04 34.66 40.04 57.76"/><polygon class="cls-6" points="20.02 69.31 0.02 57.76 20.02 46.21 20.02 69.31"/><polygon class="cls-5" points="20.02 69.31 40.04 57.76 20.02 46.21 20.02 69.31"/><polygon class="cls-6" points="0.02 57.76 20.02 46.21 0.02 34.66 0.02 57.76"/><polygon class="cls-2" points="20.02 46.21 0.02 34.66 20.02 23.11 20.02 46.21"/><polygon class="cls-2" points="20.02 46.21 40.04 34.66 20.02 23.11 20.02 46.21"/><polygon class="cls-4" points="120.01 57.68 100 46.13 120.01 34.58 120.01 57.68"/><polygon class="cls-1" points="100 69.23 79.99 57.68 100 46.13 100 69.23"/><polygon class="cls-4" points="100 69.23 120.01 57.68 100 46.13 100 69.23"/><polygon class="cls-1" points="79.99 57.68 100 46.13 79.99 34.58 79.99 57.68"/><polygon class="cls-3" points="100 46.13 79.99 34.58 100 23.02 100 46.13"/><polygon class="cls-3" points="100 46.13 120.01 34.58 100 23.02 100 46.13"/><polygon class="cls-4" points="119.99 80.8 99.98 69.25 119.99 57.7 119.99 80.8"/><polygon class="cls-1" points="99.98 92.35 79.97 80.8 99.98 69.25 99.98 92.35"/><polygon class="cls-4" points="99.98 92.35 119.99 80.8 99.98 69.25 99.98 92.35"/><polygon class="cls-1" points="79.97 80.8 99.98 69.25 79.97 57.7 79.97 80.8"/><polygon class="cls-1" points="80.07 57.73 60.06 46.18 80.07 34.63 80.07 57.73"/><polygon class="cls-1" points="60.06 46.18 80.07 34.63 60.06 23.08 60.06 46.18"/><polygon class="cls-3" points="80.07 34.63 60.06 23.08 80.07 11.53 80.07 34.63"/><polygon class="cls-3" points="80.07 34.63 100.08 23.08 80.07 11.53 80.07 34.63"/><polygon class="cls-4" points="120 103.87 99.98 92.32 120 80.77 120 103.87"/><polygon class="cls-1" points="99.98 115.42 79.98 103.87 99.98 92.32 99.98 115.42"/><polygon class="cls-4" points="99.98 115.42 120 103.87 99.98 92.32 99.98 115.42"/><polygon class="cls-1" points="79.98 103.87 99.98 92.32 79.98 80.77 79.98 103.87"/><polygon class="cls-1" points="80.05 103.93 60.05 92.38 80.05 80.83 80.05 103.93"/><polygon class="cls-1" points="60.05 92.38 80.05 80.83 60.05 69.28 60.05 92.38"/><polygon class="cls-3" points="80.05 80.83 60.05 69.28 80.05 57.72 80.05 80.83"/><polygon class="cls-5" points="40.02 80.89 20.01 69.34 40.02 57.79 40.02 80.89"/><polygon class="cls-6" points="20.01 92.45 0 80.89 20.01 69.34 20.01 92.45"/><polygon class="cls-5" points="20.01 92.45 40.02 80.89 20.01 69.34 20.01 92.45"/><polygon class="cls-6" points="0 80.89 20.01 69.34 0 57.79 0 80.89"/><polygon class="cls-5" points="40.02 103.98 20.01 92.43 40.02 80.87 40.02 103.98"/><polygon class="cls-6" points="20.01 115.53 0 103.98 20.01 92.43 20.01 115.53"/><polygon class="cls-5" points="20.01 115.53 40.02 103.98 20.01 92.43 20.01 115.53"/><polygon class="cls-6" points="0 103.98 20.01 92.43 0 80.87 0 103.98"/><path class="cls-7" d="M257.73,107.62c0,11.2-1,14.3-3.7,17-1.6,1.6-4.1,2.7-8.8,2.7h-16.5c-5.3,0-8.5-.9-10.7-3.1-3.5-3.5-4.5-7.7-4.5-23.9s1-20.4,4.5-23.9c2.2-2.2,5.4-3.1,10.7-3.1h16.4c4.9,0,7.1,1,8.8,2.7,2.6,2.6,3.6,6.2,3.6,16.3h-10.1c-0.2-7-.6-8.2-1.2-8.8s-1.4-.9-3.7-0.9H230c-3.1,0-3.9.3-4.6,1-1,1-1.5,2.9-1.5,16.7s0.5,15.7,1.5,16.7c0.7,0.7,1.5,1,4.6,1h12.6c2.2,0,3.2-.2,3.9-0.9s1.1-2.7,1.1-9.5h10.1Z" transform="translate(-52.32 -41.35)"/><path class="cls-7" d="M273.53,124.22c-3.5-3.5-4.5-7.7-4.5-23.9s1-20.4,4.5-23.9c2.2-2.2,5.4-3.1,10.7-3.1h15.9c5.3,0,8.5.9,10.7,3.1,3.5,3.5,4.5,7.7,4.5,23.9s-1,20.4-4.5,23.9c-2.2,2.2-5.4,3.1-10.7,3.1h-15.9C278.93,127.32,275.73,126.42,273.53,124.22Zm7.4-7.2c0.7,0.7,1.5,1,4.6,1h13.3c3.1,0,3.9-.3,4.6-1,1-1,1.5-2.9,1.5-16.7s-0.5-15.7-1.5-16.7c-0.7-.7-1.5-1-4.6-1h-13.3c-3.1,0-3.9.3-4.6,1-1,1-1.5,2.9-1.5,16.7S279.93,116,280.93,117Z" transform="translate(-52.32 -41.35)"/><path class="cls-7" d="M363.83,127.32v-6.5c-6.8,5.5-9.1,6.6-13.5,6.6H343c-5.8,0-8.7-1-11-3.3-2.9-2.9-4.3-7-4.3-23.8s1.4-20.9,4.3-23.8c2.3-2.3,5.2-3.3,11-3.3h7.3c4.4,0,6.6,1,13.5,6.6V55.32h10.4v72h-10.4Zm0-12.4V85.52c-4.1-2.1-6.8-3-10.1-3h-8.2c-3.3,0-4.6.4-5.5,1.3-1.5,1.5-1.9,4.4-1.9,16.5s0.4,15,1.9,16.5c0.9,0.9,2.2,1.3,5.5,1.3h7.8C356.63,118.12,359.53,117.22,363.83,114.92Z" transform="translate(-52.32 -41.35)"/><path class="cls-7" d="M398.33,103.72c0.1,10.6.7,12.7,1.5,13.5s1.5,1,4.6,1h14c2.3,0,3-.4,3.6-1s0.9-1.9,1.1-6.7h10.1c-0.2,8.4-1,11.4-3.7,14.1-1.7,1.7-4,2.7-8.8,2.7h-17.5c-5.3,0-8.5-.9-10.7-3.1-3.5-3.5-4.5-7.7-4.5-23.9s1-20.4,4.5-23.9c2.2-2.2,5.4-3.1,10.7-3.1H418c5.3,0,8.7,1,10.7,3,3.5,3.5,4.5,7.7,4.5,23.5v2.7a1,1,0,0,1-1.2,1.2h-33.7Zm0-8.3h24.6c0-9.1-.6-11.1-1.5-12-0.6-.6-1.5-1-4.6-1h-12.4c-3.1,0-3.9.3-4.7,1.1S398.43,86.22,398.33,95.42Z" transform="translate(-52.32 -41.35)"/><path class="cls-7" d="M472.33,124.22c-3.5-3.5-4.5-7.7-4.5-23.9s1-20.4,4.5-23.9c2.2-2.2,5.4-3.1,10.7-3.1h15.9c5.3,0,8.5.9,10.7,3.1,3.5,3.5,4.5,7.7,4.5,23.9s-1,20.4-4.5,23.9c-2.2,2.2-5.4,3.1-10.7,3.1H483C477.73,127.32,474.53,126.42,472.33,124.22Zm7.4-7.2c0.7,0.7,1.5,1,4.6,1h13.3c3.1,0,3.9-.3,4.6-1,1-1,1.5-2.9,1.5-16.7s-0.5-15.7-1.5-16.7c-0.7-.7-1.5-1-4.6-1h-13.3c-3.1,0-3.9.3-4.6,1-1,1-1.5,2.9-1.5,16.7S478.73,116,479.73,117Z" transform="translate(-52.32 -41.35)"/><path class="cls-7" d="M527.93,127.32v-54h10.4v7.9c5.3-5.6,8.2-8,12.5-8h6.4v10.7h-7.6a28.76,28.76,0,0,0-11.3,2v41.4h-10.4Z" transform="translate(-52.32 -41.35)"/><path class="cls-7" d="M570,76.32c2.1-2.1,4.3-3,9.1-3h16.6c6.1,0,8.7,1.1,10.5,2.9,2.5,2.5,3.1,5.1,3.1,14.7v36.4H599v-6.6c-6.5,5.4-8.4,6.7-13.2,6.7h-8.4c-4.9,0-7.5-.6-9.7-2.8-1.9-1.9-3.2-5-3.2-11.8,0-6.4,1.2-10.6,3.3-12.7,2.4-2.4,4.8-3.9,17.9-3.9a48.23,48.23,0,0,1,13.3,1.5v-6c0-6.3-.4-7.9-1.2-8.7s-1.8-.9-4.7-0.9h-10.8c-2.5,0-3.6.2-4.3,0.9s-1,2.6-1.2,6.7h-10.1C566.83,81.52,567.93,78.42,570,76.32Zm29,38.9V104H585c-6.8,0-8.1.5-9,1.4s-1.3,2.2-1.3,5.7c0,4,.2,5.8,1,6.6s1.8,0.8,4.2.8h7.7C591.63,118.52,594,117.92,599,115.22Z" transform="translate(-52.32 -41.35)"/><path class="cls-7" d="M624.23,127.32v-54h10.4v6.5c6.8-5.6,9-6.6,13.5-6.6h8.5c4.7,0,7.3,1.1,9.3,3.1s3.2,4.7,3.2,12.2v38.8h-10.4V89.22c0-2.6-.4-4.2-1.4-5.2s-2.1-1.5-5.6-1.5h-7c-3.3,0-6.1,1-10.1,3v41.8h-10.4Z" transform="translate(-52.32 -41.35)"/><path class="cls-7" d="M695.92,142.32c-4.6,0-7-1-8.8-2.8-2-2-2.9-4.8-2.9-10.6h10.4c0.1,2.4.4,3.3,1.1,4s1.4,0.8,4.1.8h13.1c2.9,0,4-.2,4.7-0.9s1.1-1.7,1.1-6.7v-11.2c-6.9,5.5-9.1,6.5-13.5,6.5H698c-5.8,0-8.7-1-11-3.3-2.9-2.9-4.3-6.1-4.3-20.8s1.4-17.9,4.3-20.8c2.3-2.3,5.2-3.3,11-3.3h7.2c4.4,0,6.6,1,13.5,6.6v-6.5h10.4v51.4c0,9.6-.9,12.2-3.4,14.7-1.8,1.8-4.4,2.9-10.5,2.9h-19.3Zm22.8-33.1V85.62c-4.2-2.2-7.2-3.2-10.5-3.2h-7.7c-3.3,0-4.6.4-5.5,1.3-1.5,1.5-1.9,2.9-1.9,13.6s0.4,12.1,1.9,13.6c0.9,0.9,2.2,1.3,5.5,1.3h8.1C711.83,112.22,714.73,111.32,718.73,109.22Z" transform="translate(-52.32 -41.35)"/><path class="cls-7" d="M753.22,103.72c0.1,10.6.7,12.7,1.5,13.5s1.5,1,4.6,1h14c2.3,0,3-.4,3.6-1s0.9-1.9,1.1-6.7h10.1c-0.2,8.4-1,11.4-3.7,14.1-1.7,1.7-4,2.7-8.8,2.7h-17.5c-5.3,0-8.5-.9-10.7-3.1-3.5-3.5-4.5-7.7-4.5-23.9s1-20.4,4.5-23.9c2.2-2.2,5.4-3.1,10.7-3.1h14.8c5.3,0,8.7,1,10.7,3,3.5,3.5,4.5,7.7,4.5,23.5v2.7a1,1,0,0,1-1.2,1.2h-33.7Zm0-8.3h24.6c0-9.1-.6-11.1-1.5-12-0.6-.6-1.5-1-4.6-1h-12.4c-3.1,0-3.9.3-4.7,1.1S753.32,86.22,753.22,95.42Z" transform="translate(-52.32 -41.35)"/></svg>
