<?xml version="1.0" encoding="UTF-8" standalone="no"?>
<!-- Created with Inkscape (http://www.inkscape.org/) -->

<svg
   xmlns:dc="http://purl.org/dc/elements/1.1/"
   xmlns:cc="http://creativecommons.org/ns#"
   xmlns:rdf="http://www.w3.org/1999/02/22-rdf-syntax-ns#"
   xmlns:svg="http://www.w3.org/2000/svg"
   xmlns="http://www.w3.org/2000/svg"
   version="1.1"
   width="200"
   height="61.530125"
   id="svg3004"
   xml:space="preserve"><metadata
     id="metadata3010"><rdf:RDF><cc:Work
         rdf:about=""><dc:format>image/svg+xml</dc:format><dc:type
           rdf:resource="http://purl.org/dc/dcmitype/StillImage" /><dc:title></dc:title></cc:Work></rdf:RDF></metadata><defs
     id="defs3008"><clipPath
       id="clipPath3018"><path
         d="m 0,49.224 160,0 L 160,0 0,0 0,49.224 z"
         id="path3020" /></clipPath><clipPath
       id="clipPath3074"><path
         d="m 1.24219,48.1021 45.95751,0 0,-30.0611 -45.95751,0 0,30.0611 z"
         id="path3076" /></clipPath><clipPath
       id="clipPath3078"><path
         d="m 1.24219,48.1021 45.95751,0 0,-30.1089 -45.95751,0 0,30.1089 z"
         id="path3080" /></clipPath><linearGradient
       x1="0"
       y1="0"
       x2="1"
       y2="0"
       id="linearGradient3086"
       gradientUnits="userSpaceOnUse"
       gradientTransform="matrix(0,30.060547,30.060547,0,24.221191,18.041016)"
       spreadMethod="pad"><stop
         id="stop3088"
         style="stop-color:#6d6e70;stop-opacity:1"
         offset="0" /><stop
         id="stop3090"
         style="stop-color:#231f20;stop-opacity:1"
         offset="0.58787501" /><stop
         id="stop3092"
         style="stop-color:#231f20;stop-opacity:1"
         offset="1" /></linearGradient><mask
       id="mask3094"><g
         id="g3096"><g
           clip-path="url(#clipPath3074)"
           id="g3098"
           style="opacity:0.60000598"><path
             d="m 1.242,48.102 45.958,0 0,-30.109 -45.958,0 0,30.109 z"
             id="path3100"
             style="fill:#000000;fill-opacity:1;fill-rule:nonzero;stroke:none" /><g
             id="g3102"><g
               id="g3104" /><g
               id="g3106"><g
                 clip-path="url(#clipPath3078)"
                 id="g3108"><g
                   id="g3110"><g
                     id="g3112"><g
                       id="g3114"><g
                         id="g3116"><path
                           d="m 26.84,43.238 c 1.908,-0.26 3.714,-0.827 5.39,-1.625 l 0,5.069 c -1.715,0.626 -3.514,1.074 -5.39,1.278 l 0,-4.722 z m -7.824,-17.43 c -1.708,0 -2.563,-1.099 -2.563,-3.288 0,-1.339 0.327,-2.506 0.952,-3.524 1.697,0.518 3.171,1.213 4.519,1.998 -0.291,0.428 -0.475,0.966 -0.475,1.688 0,2.084 -0.812,3.126 -2.433,3.126 m 15.092,20.094 0,-5.318 c 4.011,-2.515 6.971,-6.528 8.121,-11.246 1.499,-0.176 3.154,-0.51 4.971,-1.008 -1.135,7.8 -6.19,14.334 -13.092,17.572 M 7.756,24.999 c 0,-2.479 0.562,-4.823 1.542,-6.936 1.917,-0.07 3.634,0.029 5.176,0.271 -1.29,1.903 -2.045,4.197 -2.045,6.665 0,6.57 5.343,11.915 11.912,11.915 0.213,0 0.411,-0.052 0.621,-0.062 l 0,4.704 c -0.208,0.007 -0.41,0.03 -0.621,0.03 -9.145,0 -16.585,-7.44 -16.585,-16.587 m -6.514,0 c 0,-2.073 0.3,-4.075 0.816,-5.99 1.868,-0.391 3.588,-0.658 5.173,-0.809 -0.841,2.108 -1.316,4.398 -1.316,6.799 0,10.163 8.267,18.429 18.426,18.429 0.211,0 0.413,-0.025 0.621,-0.031 l 0,4.673 c -0.209,0.005 -0.41,0.032 -0.621,0.032 -12.737,0 -23.099,-10.365 -23.099,-23.103 m 32.866,13.362 0,-6.625 c 0.571,-0.823 1.023,-1.728 1.38,-2.679 1.419,0.337 2.996,0.5 4.794,0.436 -1.024,3.602 -3.221,6.712 -6.174,8.868 M 26.84,24.407 c 1.718,1.3 3.421,2.547 5.39,3.488 l 0,11.679 c -1.672,0.844 -3.723,1.452 -5.41,1.704 l 0.02,-16.871 z"
                           id="path3118"
                           style="fill:url(#linearGradient3086);stroke:none" /></g></g></g></g></g></g></g></g></g></mask><clipPath
       id="clipPath3124"><path
         d="m 1.24219,48.1021 45.95751,0 0,-30.0611 -45.95751,0 0,30.0611 z"
         id="path3126" /></clipPath></defs><g
     transform="matrix(1.25,0,0,-1.25,0,61.530125)"
     id="g3012"><g
       id="g3014"><g
         clip-path="url(#clipPath3018)"
         id="g3016"><g
           transform="translate(69.1655,33.4595)"
           id="g3022"><path
             d="m 0,0 0,-12.951 c 0,-2.332 -0.637,-4.141 -1.915,-5.428 -1.277,-1.288 -3.13,-1.932 -5.563,-1.932 -2.636,0 -4.572,0.752 -5.806,2.249 -0.874,1.078 -1.309,2.373 -1.309,3.893 0,2.027 0.791,3.042 2.371,3.042 1.5,0 2.249,-0.965 2.249,-2.89 0,-1.64 0.812,-2.462 2.435,-2.462 1.702,0 2.553,1.196 2.553,3.588 l 0,12.891 c 0,0.749 0.229,1.352 0.686,1.807 0.454,0.459 1.056,0.685 1.808,0.685 0.748,0 1.353,-0.226 1.808,-0.685 C -0.226,1.352 0,0.749 0,0"
             id="path3024"
             style="fill:#92c111;fill-opacity:1;fill-rule:nonzero;stroke:none" /></g><g
           transform="translate(76.5952,31.5444)"
           id="g3026"><path
             d="m 0,0 0,-13.863 4.194,0 c 1.846,0 3.222,0.729 4.138,2.188 0.751,1.214 1.126,2.794 1.126,4.741 C 9.458,-2.312 7.693,0 4.162,0 L 0,0 z m -4.985,-14.959 0,16.051 c 0,1.946 0.971,2.921 2.917,2.921 l 6.08,0 c 6.957,0 10.429,-3.65 10.429,-10.947 0,-3.464 -0.921,-6.156 -2.769,-8.07 -1.841,-1.916 -4.425,-2.874 -7.75,-2.874 l -5.99,0 c -1.946,0 -2.917,0.971 -2.917,2.919"
             id="path3028"
             style="fill:#58595b;fill-opacity:1;fill-rule:nonzero;stroke:none" /></g><g
           transform="translate(92.9678,15.4917)"
           id="g3030"><path
             d="m 0,0 0,12.405 c 0,0.648 0.189,1.154 0.562,1.518 0.376,0.365 0.859,0.549 1.445,0.549 0.588,0 1.07,-0.184 1.442,-0.549 0.377,-0.364 0.564,-0.87 0.564,-1.518 l 0,-1.705 0.061,0 c 0.709,2.514 1.937,3.772 3.678,3.772 0.709,0 1.293,-0.204 1.749,-0.609 0.456,-0.407 0.683,-0.922 0.683,-1.552 0,-1.477 -0.726,-2.216 -2.188,-2.216 l -0.791,0 C 5.363,10.095 4.438,8.45 4.438,5.166 L 4.438,0 c 0,-1.483 -0.74,-2.22 -2.219,-2.22 C 0.738,-2.22 0,-1.483 0,0"
             id="path3032"
             style="fill:#58595b;fill-opacity:1;fill-rule:nonzero;stroke:none" /></g><g
           transform="translate(106.6475,31.4516)"
           id="g3034"><path
             d="m 0,0 c 0.649,0 1.196,0.228 1.641,0.685 0.448,0.456 0.67,0.999 0.67,1.627 0,0.649 -0.222,1.195 -0.67,1.64 C 1.196,4.399 0.649,4.624 0,4.624 -0.631,4.624 -1.169,4.399 -1.624,3.952 -2.082,3.507 -2.309,2.961 -2.309,2.312 -2.309,1.684 -2.082,1.141 -1.624,0.685 -1.169,0.228 -0.631,0 0,0"
             id="path3036"
             style="fill:#92c111;fill-opacity:1;fill-rule:nonzero;stroke:none" /></g><g
           transform="translate(106.6475,29.9634)"
           id="g3038"><path
             d="m 0,0 c -1.479,0 -2.22,-0.74 -2.22,-2.219 l 0,-12.253 c 0,-1.483 0.741,-2.219 2.22,-2.219 1.479,0 2.218,0.736 2.218,2.219 l 0,12.253 C 2.218,-0.74 1.479,0 0,0"
             id="path3040"
             style="fill:#58595b;fill-opacity:1;fill-rule:nonzero;stroke:none" /></g><g
           transform="translate(114.6455,14.8511)"
           id="g3042"><path
             d="m 0,0 -4.193,11.678 c -0.185,0.503 -0.276,0.879 -0.276,1.123 0,0.749 0.22,1.338 0.666,1.762 0.407,0.366 0.905,0.549 1.489,0.549 1.116,0 1.858,-0.618 2.221,-1.853 l 2.984,-10.036 0.056,0 2.985,10.036 c 0.361,1.235 1.101,1.853 2.219,1.853 0.586,0 1.083,-0.183 1.487,-0.549 0.443,-0.424 0.67,-1.013 0.67,-1.762 0,-0.244 -0.091,-0.62 -0.276,-1.123 L 5.839,0 C 5.617,-0.647 5.352,-1.061 5.046,-1.246 4.685,-1.468 3.974,-1.579 2.919,-1.579 c -1.057,0 -1.751,0.1 -2.082,0.305 C 0.502,-1.073 0.222,-0.647 0,0"
             id="path3044"
             style="fill:#58595b;fill-opacity:1;fill-rule:nonzero;stroke:none" /></g><g
           transform="translate(129.7852,23.3354)"
           id="g3046"><path
             d="M 0,0 7.782,0 C 7.663,1.034 7.25,1.881 6.549,2.536 5.853,3.196 5.018,3.526 4.043,3.526 1.875,3.526 0.524,2.352 0,0 M 10.033,-2.555 0,-2.555 c 0,-1.195 0.366,-2.171 1.094,-2.921 0.731,-0.748 1.735,-1.122 3.011,-1.122 0.954,0 1.759,0.192 2.43,0.576 0.146,0.083 0.577,0.427 1.309,1.036 0.467,0.385 0.933,0.577 1.4,0.577 0.506,0 0.935,-0.183 1.291,-0.548 0.352,-0.364 0.532,-0.761 0.532,-1.187 0,-1.214 -0.822,-2.197 -2.464,-2.947 -1.398,-0.647 -2.899,-0.972 -4.498,-0.972 -2.877,0 -5.079,0.859 -6.598,2.582 -1.297,1.459 -1.945,3.284 -1.945,5.474 0,2.613 0.749,4.706 2.251,6.279 1.497,1.57 3.541,2.356 6.138,2.356 2.434,0 4.411,-0.752 5.932,-2.252 1.396,-1.397 2.098,-3.07 2.098,-5.017 0,-0.749 -0.137,-1.255 -0.415,-1.517 -0.273,-0.265 -0.785,-0.397 -1.533,-0.397"
             id="path3048"
             style="fill:#58595b;fill-opacity:1;fill-rule:nonzero;stroke:none" /></g><g
           transform="translate(143.7119,15.4917)"
           id="g3050"><path
             d="m 0,0 0,12.253 c 0,1.478 0.668,2.219 2.004,2.219 1.336,0 2.008,-0.741 2.008,-2.219 l 0,-0.579 0.059,0 c 1.419,1.864 3.217,2.798 5.382,2.798 1.56,0 2.826,-0.406 3.801,-1.216 1.2,-1.015 1.792,-2.556 1.792,-4.621 l 0,-8.635 c 0,-1.483 -0.738,-2.22 -2.22,-2.22 -1.48,0 -2.22,0.737 -2.22,2.22 l 0,7.751 c 0,2.046 -0.931,3.071 -2.793,3.071 -0.851,0 -1.614,-0.303 -2.28,-0.912 C 4.799,9.222 4.439,8.359 4.439,7.325 L 4.439,0 C 4.439,-1.483 3.697,-2.22 2.218,-2.22 0.741,-2.22 0,-1.483 0,0"
             id="path3052"
             style="fill:#58595b;fill-opacity:1;fill-rule:nonzero;stroke:none" /></g><g
           transform="translate(26.8203,40.88985)"
           id="g3054"><path
             d="m 0,0 0.02,-17.378 c 0,-2.588 -0.92,-3.881 -2.76,-3.881 -1.754,0 -2.631,0.889 -2.631,2.662 0,2.084 -0.813,3.126 -2.433,3.126 -1.708,0 -2.563,-1.098 -2.563,-3.288 0,-1.646 0.47,-3.047 1.415,-4.21 1.334,-1.62 3.354,-2.889 6.203,-2.889 2.63,0 4.707,1.155 6.088,2.546 1.382,1.396 2.071,3.346 2.071,5.869 l 0,15.739 C 3.738,-0.86 1.687,-0.252 0,0"
             id="path3056"
             style="fill:#92c111;fill-opacity:1;fill-rule:nonzero;stroke:none" /></g><g
           transform="translate(34.1084,37.97285)"
           id="g3058"><path
             d="m 0,0 0,-6.625 c 1.332,-1.921 2.147,-4.226 2.147,-6.737 0,-6.569 -5.345,-11.914 -11.914,-11.914 -6.569,0 -11.912,5.345 -11.912,11.914 0,6.57 5.343,11.915 11.912,11.915 0.213,0 0.411,-0.052 0.621,-0.063 l 0,4.704 c -0.208,0.007 -0.41,0.031 -0.621,0.031 -9.146,0 -16.586,-7.441 -16.586,-16.587 0,-9.146 7.44,-16.585 16.586,-16.585 9.147,0 16.587,7.439 16.587,16.585 C 6.82,-7.87 4.125,-3.015 0,0"
             id="path3060"
             style="fill:#58595b;fill-opacity:1;fill-rule:nonzero;stroke:none" /></g><g
           transform="translate(32.2305,46.29365)"
           id="g3062"><path
             d="m 0,0 c -1.715,0.626 -3.515,1.074 -5.391,1.278 l 0,-4.722 C -3.483,-3.705 -1.676,-4.271 0,-5.069 L 0,0 z"
             id="path3064"
             style="fill:#58595b;fill-opacity:1;fill-rule:nonzero;stroke:none" /></g><g
           transform="translate(34.1084,45.51345)"
           id="g3066"><path
             d="m 0,0 0,-5.318 c 5.193,-3.257 8.662,-9.014 8.662,-15.585 0,-10.161 -8.267,-18.427 -18.429,-18.427 -10.16,0 -18.427,8.266 -18.427,18.427 0,10.163 8.267,18.429 18.427,18.429 0.211,0 0.413,-0.025 0.621,-0.03 l 0,4.672 C -9.355,2.173 -9.556,2.2 -9.767,2.2 c -12.737,0 -23.099,-10.365 -23.099,-23.103 0,-12.736 10.362,-23.1 23.099,-23.1 12.738,0 23.101,10.364 23.101,23.1 C 13.334,-11.658 7.863,-3.689 0,0"
             id="path3068"
             style="fill:#92c111;fill-opacity:1;fill-rule:nonzero;stroke:none" /></g><g
           transform="translate(0,-0.38844987)"
           id="g3070"><g
             id="g3072" /><g
             mask="url(#mask3094)"
             id="g3120"><g
               id="g3122" /><g
               id="g3128"><g
                 clip-path="url(#clipPath3124)"
                 id="g3130"
                 style="opacity:0.60000598"><g
                   transform="translate(26.8398,43.2383)"
                   id="g3132"><path
                     d="m 0,0 c 1.908,-0.261 3.714,-0.827 5.391,-1.625 l 0,5.069 C 3.675,4.07 1.876,4.518 0,4.722 L 0,0 z m -7.824,-17.431 c -1.708,0 -2.563,-1.098 -2.563,-3.288 0,-1.339 0.327,-2.506 0.952,-3.523 1.697,0.517 3.171,1.213 4.519,1.998 -0.291,0.428 -0.475,0.966 -0.475,1.687 0,2.084 -0.812,3.126 -2.433,3.126 m 15.093,20.095 0,-5.318 c 4.01,-2.515 6.97,-6.529 8.12,-11.246 1.499,-0.176 3.154,-0.51 4.971,-1.008 -1.135,7.8 -6.19,14.334 -13.091,17.572 m -26.353,-20.903 c 0,-2.48 0.563,-4.824 1.542,-6.937 1.917,-0.069 3.634,0.03 5.176,0.272 -1.29,1.903 -2.045,4.197 -2.045,6.665 0,6.57 5.344,11.915 11.912,11.915 0.213,0 0.412,-0.052 0.622,-0.063 l 0,4.704 c -0.208,0.007 -0.411,0.031 -0.622,0.031 -9.145,0 -16.585,-7.441 -16.585,-16.587 m -6.514,0 c 0,-2.074 0.301,-4.075 0.816,-5.99 1.868,-0.391 3.588,-0.659 5.173,-0.809 -0.841,2.107 -1.316,4.397 -1.316,6.799 0,10.163 8.267,18.428 18.426,18.428 0.211,0 0.414,-0.024 0.622,-0.03 l 0,4.673 c -0.209,0.004 -0.411,0.032 -0.622,0.032 -12.737,0 -23.099,-10.365 -23.099,-23.103 m 32.867,13.362 0,-6.625 c 0.57,-0.823 1.022,-1.728 1.379,-2.68 1.419,0.337 2.997,0.5 4.794,0.437 -1.024,3.601 -3.221,6.712 -6.173,8.868 M 0,-18.831 c 1.718,1.3 3.421,2.547 5.391,3.487 l 0,11.68 C 3.718,-2.82 1.667,-2.212 -0.02,-1.96 L 0,-18.831 z"
                     id="path3134"
                     style="fill:#ffffff;fill-opacity:1;fill-rule:nonzero;stroke:none" /></g></g></g></g></g><g
           transform="translate(57.3281,13.6309)"
           id="g3136" /></g></g></g></svg>