<?xml version="1.0" encoding="utf-8"?>
<!-- Generator: Adobe Illustrator 16.0.0, SVG Export Plug-In . SVG Version: 6.00 Build 0)  -->
<!DOCTYPE svg PUBLIC "-//W3C//DTD SVG 1.1//EN" "http://www.w3.org/Graphics/SVG/1.1/DTD/svg11.dtd">
<svg version="1.1" id="Layer_1" xmlns="http://www.w3.org/2000/svg" xmlns:xlink="http://www.w3.org/1999/xlink" x="0px" y="0px"
	 width="334.849px" height="72.711px" viewBox="0 0 334.849 72.711" enable-background="new 0 0 334.849 72.711"
	 xml:space="preserve">
<g>
	<path fill="#3B94EC" d="M70.161,0c-2.441,0-4.418,1.979-4.418,4.419l0,0v54.038l0,0c0,2.439,1.977,4.418,4.418,4.418
		c2.439,0,4.418-1.979,4.418-4.418l0,0V4.419C74.579,1.979,72.601,0,70.161,0z"/>
	<path fill="#3B94EC" d="M54.425,33.535c-0.025-0.25-0.078-0.492-0.109-0.74c-0.081-0.621-0.16-1.243-0.283-1.855
		c-0.107-0.543-0.256-1.069-0.395-1.6c-0.084-0.312-0.148-0.628-0.242-0.938c-0.176-0.586-0.393-1.156-0.606-1.726
		c-0.094-0.25-0.174-0.505-0.276-0.753c-0.219-0.535-0.474-1.052-0.727-1.57c-0.135-0.279-0.258-0.563-0.402-0.838
		c-0.233-0.439-0.495-0.859-0.75-1.283c-0.205-0.342-0.4-0.688-0.621-1.021c-0.219-0.331-0.463-0.644-0.695-0.964
		c-0.293-0.403-0.579-0.809-0.895-1.195c-0.194-0.239-0.408-0.461-0.611-0.693c-0.379-0.436-0.758-0.872-1.166-1.285
		c-0.188-0.188-0.392-0.36-0.584-0.544c-0.442-0.421-0.884-0.841-1.356-1.232c-0.248-0.206-0.515-0.39-0.77-0.587
		c-0.435-0.334-0.86-0.676-1.318-0.986c-0.517-0.352-1.058-0.666-1.601-0.982c-0.215-0.127-0.418-0.269-0.639-0.389
		c-1.607-0.882-3.312-1.605-5.096-2.151c-0.082-0.024-0.164-0.038-0.245-0.063c-0.769-0.227-1.544-0.432-2.339-0.592
		c-0.795-0.162-1.593-0.275-2.391-0.365c-0.082-0.01-0.162-0.027-0.244-0.037c-1.856-0.189-3.709-0.188-5.533,0
		c-0.242,0.023-0.477,0.074-0.719,0.105c-0.629,0.081-1.257,0.162-1.877,0.286c-0.539,0.107-1.062,0.255-1.59,0.394
		c-0.314,0.082-0.634,0.148-0.945,0.242c-0.587,0.178-1.154,0.392-1.724,0.606c-0.251,0.095-0.507,0.175-0.755,0.276
		c-0.537,0.221-1.055,0.475-1.572,0.728c-0.279,0.136-0.562,0.258-0.836,0.402c-0.44,0.234-0.861,0.496-1.288,0.753
		c-0.339,0.205-0.684,0.398-1.015,0.617c-0.334,0.222-0.65,0.467-0.973,0.702c-0.4,0.29-0.802,0.573-1.186,0.886
		c-0.243,0.199-0.471,0.416-0.706,0.622c-0.432,0.377-0.863,0.751-1.272,1.157c-0.193,0.191-0.369,0.398-0.557,0.596
		c-0.416,0.438-0.832,0.875-1.221,1.344c-0.211,0.254-0.397,0.525-0.599,0.785c-0.33,0.43-0.667,0.852-0.974,1.303
		c-0.358,0.525-0.68,1.077-1.002,1.629c-0.119,0.207-0.255,0.399-0.371,0.611c-0.881,1.607-1.605,3.313-2.152,5.099
		c-0.021,0.067-0.031,0.136-0.052,0.203c-0.233,0.78-0.439,1.571-0.603,2.378c-0.163,0.799-0.277,1.6-0.366,2.4
		c-0.009,0.079-0.027,0.155-0.036,0.234c-0.189,1.857-0.188,3.71,0,5.535c0.023,0.238,0.073,0.467,0.104,0.704
		c0.081,0.634,0.162,1.267,0.288,1.892c0.107,0.537,0.255,1.059,0.392,1.585c0.084,0.316,0.15,0.637,0.244,0.95
		c0.176,0.583,0.391,1.148,0.604,1.716c0.096,0.254,0.176,0.513,0.279,0.764c0.219,0.531,0.471,1.044,0.722,1.559
		c0.138,0.282,0.263,0.571,0.409,0.85c0.232,0.437,0.492,0.854,0.746,1.276c0.207,0.344,0.402,0.691,0.623,1.026
		c0.221,0.331,0.463,0.645,0.697,0.966c0.291,0.4,0.577,0.805,0.892,1.191c0.196,0.242,0.413,0.467,0.618,0.701
		c0.377,0.434,0.754,0.867,1.16,1.277c0.189,0.191,0.396,0.365,0.592,0.551c0.439,0.418,0.878,0.836,1.348,1.227
		c0.252,0.209,0.521,0.395,0.779,0.594c0.432,0.332,0.855,0.67,1.309,0.979c0.523,0.355,1.07,0.675,1.618,0.994
		c0.21,0.123,0.407,0.261,0.622,0.378c3.888,2.132,8.349,3.349,13.096,3.349h10.076l7.318,7.319
		c0.835,1.103,2.146,1.825,3.635,1.825c2.525,0,4.572-2.047,4.572-4.572c0-1.104-0.407-2.103-1.059-2.893l0.015-0.015l-0.153-0.153
		c-0.1-0.11-0.205-0.215-0.314-0.314l-8.83-8.83c-0.837-0.922-2.032-1.512-3.375-1.512l0,0H27.282c-2.504,0-4.889-0.507-7.059-1.424
		l0.002-0.005c-0.569-0.241-1.119-0.507-1.649-0.798c-0.14-0.076-0.271-0.167-0.409-0.248c-0.367-0.213-0.732-0.428-1.08-0.664
		c-0.3-0.203-0.584-0.429-0.869-0.65c-0.172-0.132-0.352-0.256-0.518-0.395c-0.311-0.257-0.602-0.534-0.895-0.811
		c-0.131-0.125-0.27-0.244-0.397-0.372c-0.267-0.269-0.515-0.556-0.764-0.841c-0.14-0.158-0.286-0.312-0.419-0.475
		c-0.205-0.252-0.393-0.519-0.584-0.781c-0.158-0.218-0.324-0.43-0.473-0.654c-0.144-0.217-0.271-0.443-0.405-0.667
		c-0.171-0.286-0.349-0.569-0.505-0.864c-0.094-0.178-0.174-0.364-0.264-0.545c-0.169-0.35-0.34-0.697-0.488-1.057
		c-0.064-0.158-0.116-0.323-0.178-0.484c-0.145-0.385-0.289-0.77-0.408-1.164c-0.059-0.195-0.101-0.398-0.154-0.598
		c-0.095-0.361-0.195-0.721-0.269-1.088c-0.079-0.395-0.132-0.799-0.184-1.203c-0.022-0.174-0.059-0.346-0.077-0.521
		c-0.061-0.602-0.092-1.211-0.092-1.828c0-0.623,0.031-1.24,0.094-1.848c0.006-0.055,0.018-0.109,0.024-0.164
		c0.06-0.536,0.137-1.066,0.241-1.588c0.104-0.504,0.235-1.006,0.382-1.506c0.021-0.07,0.034-0.145,0.056-0.215
		c0.18-0.582,0.39-1.162,0.633-1.736c0.239-0.568,0.506-1.117,0.795-1.646c0.088-0.16,0.191-0.311,0.283-0.468
		c0.204-0.346,0.406-0.692,0.628-1.021c0.214-0.312,0.446-0.607,0.678-0.906c0.124-0.159,0.239-0.327,0.368-0.482
		c0.264-0.318,0.549-0.618,0.834-0.918c0.117-0.123,0.228-0.253,0.348-0.372c0.277-0.275,0.574-0.532,0.868-0.789
		c0.149-0.13,0.292-0.269,0.446-0.393c0.26-0.213,0.537-0.407,0.809-0.605c0.209-0.151,0.412-0.31,0.627-0.452
		c0.223-0.148,0.459-0.281,0.691-0.42c0.277-0.167,0.553-0.34,0.841-0.492c0.186-0.098,0.38-0.182,0.569-0.273
		c0.34-0.166,0.681-0.334,1.031-0.478c0.168-0.069,0.345-0.124,0.516-0.188c0.375-0.141,0.749-0.283,1.133-0.398
		c0.21-0.063,0.428-0.109,0.641-0.165c0.348-0.091,0.693-0.188,1.047-0.259c0.412-0.082,0.834-0.138,1.256-0.191
		c0.157-0.02,0.312-0.053,0.469-0.068c0.603-0.061,1.213-0.093,1.83-0.093c0.625,0,1.242,0.032,1.85,0.093
		c0.049,0.006,0.098,0.018,0.148,0.022c0.542,0.06,1.077,0.139,1.604,0.245c0.516,0.105,1.031,0.238,1.543,0.391
		c0.057,0.018,0.117,0.027,0.174,0.045c0.584,0.18,1.164,0.391,1.739,0.633c0.569,0.24,1.118,0.508,1.649,0.797
		c0.145,0.08,0.279,0.174,0.422,0.257c0.361,0.21,0.723,0.423,1.065,0.655c0.304,0.207,0.593,0.436,0.884,0.66
		c0.168,0.129,0.342,0.25,0.505,0.385c0.313,0.261,0.608,0.541,0.903,0.822c0.128,0.121,0.264,0.235,0.387,0.359
		c0.271,0.273,0.523,0.564,0.775,0.855c0.135,0.154,0.277,0.302,0.406,0.46c0.209,0.257,0.399,0.527,0.596,0.796
		c0.154,0.213,0.316,0.42,0.461,0.639c0.146,0.221,0.277,0.454,0.414,0.682c0.169,0.281,0.344,0.561,0.497,0.85
		c0.097,0.184,0.179,0.375,0.271,0.562c0.167,0.344,0.336,0.686,0.48,1.039c0.068,0.165,0.122,0.338,0.186,0.506
		c0.143,0.377,0.284,0.756,0.402,1.143c0.062,0.207,0.106,0.42,0.161,0.631c0.093,0.35,0.189,0.698,0.261,1.054
		c0.082,0.409,0.137,0.827,0.19,1.245c0.021,0.161,0.054,0.32,0.071,0.482c0.06,0.602,0.092,1.211,0.092,1.828
		c0,0.012,0.003,0.021,0.003,0.031c-0.003,2.346-0.462,4.73-1.433,7.027c-0.982,2.325,0.107,5.008,2.433,5.99
		c2.326,0.982,5.009-0.106,5.991-2.433V46.9c1.455-3.443,2.135-7.018,2.143-10.535c0-0.027,0.008-0.053,0.008-0.08
		c0-0.033-0.01-0.063-0.01-0.097C54.55,35.3,54.515,34.413,54.425,33.535z"/>
	<path fill="#3B94EC" d="M292.716,22.092c-4.42-4.333-10.451-6.797-17.08-6.797c-14.02,0-24.384,11.3-24.384,24.555
		c0,12.234,9.345,24.385,24.47,24.385c4.672,0,9.262-1.274,13.169-3.908c2.474-1.613,4.673-3.742,6.517-6.377l0,0
		c0.299-0.331,0.553-0.703,0.731-1.118c0.212-0.494,0.33-1.037,0.33-1.608c0-0.885-0.288-1.698-0.765-2.367
		c-0.742-1.04-1.951-1.723-3.325-1.723c-1.339,0-2.525,0.645-3.271,1.639c0,0-0.018,0.028-0.047,0.084
		c-0.148,0.28-0.305,0.553-0.465,0.82c-2.623,4.355-7.032,6.996-12.875,6.996c-6.968,0-15.125-4.758-15.549-14.104h39.508
		C300.446,34.836,298.152,27.615,292.716,22.092z M260.329,35.686c0.426-6.287,6.288-12.829,15.294-12.829
		c8.752-0.171,14.869,6.712,15.294,12.829H260.329z"/>
	<path fill="#3B94EC" d="M184.36,21.073C184.36,21.072,184.36,21.072,184.36,21.073c0-2.441-1.979-4.419-4.418-4.419
		c-2.44,0-4.418,1.978-4.418,4.418c0,0,0,0,0,0.001v21.409c0,7.902-3.992,13.426-12.66,13.51c-9.092,0-12.319-5.947-12.319-14.273
		V21.073c0-0.001,0.001-0.001,0.001-0.001c0-2.44-1.979-4.418-4.418-4.418c-2.441,0-4.42,1.978-4.42,4.418l0,0l0,0v22.686
		c0,9.602,3.824,20.391,18.693,20.477c7.664,0.079,12.68-2.68,15.123-6.895v2.391c0,2.44,1.978,4.418,4.418,4.418
		c2.439,0,4.418-1.978,4.418-4.418V49.147l0,0V21.073z"/>
	<path fill="#3B94EC" d="M238.319,0c-2.44,0-4.418,1.979-4.418,4.419V4.42v11.639v4.683c-4.047-3.345-9.402-5.446-15.885-5.446
		c-15.549,0-24.642,12.064-24.642,24.384v0.085c0,12.405,9.093,24.385,24.642,24.385c6.483,0,11.839-2.086,15.885-5.416v0.998l0,0
		c0,2.44,1.978,4.418,4.418,4.418c2.439,0,4.418-1.978,4.418-4.418l0,0v-3.404V4.419C242.737,1.979,240.759,0,238.319,0z
		 M218.017,55.908c-8.837,0-15.805-6.883-15.805-16.059v-0.086c0-9.262,6.968-16.143,15.805-16.143
		c8.836,0,15.803,6.881,15.803,16.143S226.853,55.908,218.017,55.908z"/>
	<path fill="#3B94EC" d="M330.431,16.709L330.431,16.709L330.431,16.709h-7.44c-4.224,0-5.813,3.68-5.813,3.68v-3.68h-4.418l0,0l0,0
		c-2.441,0-4.419,1.978-4.419,4.418h-0.001V59.73h0.001c0,2.44,1.978,4.418,4.419,4.418c2.439,0,4.418-1.978,4.418-4.418
		c0,0-0.001,0-0.001-0.001V31.71h0.001v-1.749c0-3.093,3.008-4.416,4.418-4.416h8.836l0,0l0,0c2.439,0,4.418-1.979,4.418-4.418
		C334.849,18.687,332.87,16.709,330.431,16.709z"/>
	<path fill="#3B94EC" d="M108.142,15.295c-15.549,0-24.641,12.064-24.641,24.384v0.085c0,12.405,9.092,24.385,24.641,24.385
		c15.548,0,24.639-11.979,24.639-24.385C132.78,27.359,123.689,15.295,108.142,15.295z M108.142,55.908
		c-8.836,0-15.805-6.883-15.805-16.059v-0.086c0-9.262,6.969-16.143,15.805-16.143s15.804,6.881,15.804,16.143
		S116.978,55.908,108.142,55.908z"/>
</g>
</svg>
