<?xml version="1.0" encoding="UTF-8" standalone="no"?>
<svg width="970px" height="200px" viewBox="0 0 970 200" version="1.1" xmlns="http://www.w3.org/2000/svg" xmlns:xlink="http://www.w3.org/1999/xlink">
    <!-- Generator: Sketch 39 (31667) - http://www.bohemiancoding.com/sketch -->
    <title>gdg-devfest-logo</title>
    <desc>Created with Sketch.</desc>
    <defs>
        <radialGradient cx="98.6854601%" cy="97.8271186%" fx="98.6854601%" fy="97.8271186%" r="324.704239%" id="radialGradient-1">
            <stop stop-color="#BF360C" stop-opacity="0.2" offset="0%"></stop>
            <stop stop-color="#BF360C" stop-opacity="0.02" offset="100%"></stop>
        </radialGradient>
        <radialGradient cx="162.728291%" cy="157.694517%" fx="162.728291%" fy="157.694517%" r="263.10566%" id="radialGradient-2">
            <stop stop-color="#263238" stop-opacity="0.2" offset="0%"></stop>
            <stop stop-color="#263238" stop-opacity="0.02" offset="100%"></stop>
        </radialGradient>
        <radialGradient cx="-1.25065013%" cy="0.78105%" fx="-1.25065013%" fy="0.78105%" r="167.971194%" id="radialGradient-3">
            <stop stop-color="#FFFFFF" stop-opacity="0.1" offset="0%"></stop>
            <stop stop-color="#FFFFFF" stop-opacity="0" offset="100%"></stop>
        </radialGradient>
    </defs>
    <g id="Page-1" stroke="none" stroke-width="1" fill="none" fill-rule="evenodd">
        <g id="gdg-devfest-logo">
            <g id="XMLID_60_">
                <g id="XMLID_61_">
                    <g id="XMLID_62_">
                        <path d="M122.5,90.6 L70.1,0 L0,0 L57.8,100 L0,200 L70.1,200 L122.5,109.4 C125.8,103.6 125.8,96.4 122.5,90.6 L122.5,90.6 Z" id="XMLID_106_"></path>
                        <polygon id="XMLID_105_" fill="#FFC107" points="92.4 159.8 75.8 131.1 35.9 200 70.1 200 92.9 160.6"></polygon>
                        <path d="M122.5,90.6 L70.1,0 L0,0 L57.8,100 L0,200 L70.1,200 L122.5,109.4 C125.8,103.6 125.8,96.4 122.5,90.6 L122.5,90.6 Z" id="XMLID_104_"></path>
                        <polygon id="XMLID_103_" fill="#0F9D58" points="57.8 100 75.8 131.1 35.9 200 0 200"></polygon>
                        <path d="M122.5,90.6 L70.1,0 L0,0 L57.8,100 L0,200 L70.1,200 L122.5,109.4 C125.8,103.6 125.8,96.4 122.5,90.6 L122.5,90.6 Z" id="XMLID_102_"></path>
                        <polygon id="XMLID_101_" fill="#BF360C" opacity="0.2" points="70.1 198.4 36.8 198.4 35.9 200 70.1 200 92.9 160.6 92.4 159.8"></polygon>
                        <path d="M122.5,90.6 L70.1,0 L0,0 L57.8,100 L0,200 L70.1,200 L122.5,109.4 C125.8,103.6 125.8,96.4 122.5,90.6 L122.5,90.6 Z" id="XMLID_100_"></path>
                        <polygon id="XMLID_99_" fill="#263238" opacity="0.2" points="0.9 198.4 0 200 35.9 200 36.8 198.4"></polygon>
                        <path d="M122.5,90.6 L70.1,0 L0,0 L57.8,100 L0,200 L70.1,200 L122.5,109.4 C125.8,103.6 125.8,96.4 122.5,90.6 L122.5,90.6 Z" id="XMLID_98_"></path>
                        <polygon id="XMLID_96_" fill="#FFFFFF" opacity="0.2" points="0 200 0.9 200 58.3 100.8 57.8 100"></polygon>
                        <path d="M122.5,90.6 L70.1,0 L0,0 L57.8,100 L0,200 L70.1,200 L122.5,109.4 C125.8,103.6 125.8,96.4 122.5,90.6 L122.5,90.6 Z" id="XMLID_94_"></path>
                        <polygon id="XMLID_92_" fill="url(#radialGradient-1)" points="92.9 160.6 75.8 131.1 71.6 138.3"></polygon>
                        <path d="M122.5,90.6 L70.1,0 L0,0 L57.8,100 L0,200 L70.1,200 L122.5,109.4 C125.8,103.6 125.8,96.4 122.5,90.6 L122.5,90.6 Z" id="XMLID_90_"></path>
                        <polygon id="XMLID_89_" fill="url(#radialGradient-2)" points="71.6 138.3 75.8 131.1 57.8 100 49.3 114.8"></polygon>
                        <path d="M122.5,90.6 L70.1,0 L0,0 L57.8,100 L0,200 L70.1,200 L122.5,109.4 C125.8,103.6 125.8,96.4 122.5,90.6 L122.5,90.6 Z" id="XMLID_88_"></path>
                        <g id="XMLID_85_" fill="#4285F4">
                            <g id="XMLID_86_">
                                <polygon id="XMLID_87_" points="35.9 0 0 0 92.9 160.6 110.8 129.5"></polygon>
                            </g>
                        </g>
                        <path d="M122.5,90.6 L70.1,0 L0,0 L57.8,100 L0,200 L70.1,200 L122.5,109.4 C125.8,103.6 125.8,96.4 122.5,90.6 L122.5,90.6 Z" id="XMLID_84_"></path>
                        <path d="M122.5,109.4 C125.9,103.6 125.9,96.4 122.5,90.6 L70.1,0 L35.9,0 L110.8,129.5 L122.5,109.4 L122.5,109.4 Z" id="XMLID_83_" fill="#DB4437"></path>
                        <path d="M122.5,90.6 L70.1,0 L0,0 L57.8,100 L0,200 L70.1,200 L122.5,109.4 C125.8,103.6 125.8,96.4 122.5,90.6 L122.5,90.6 Z" id="XMLID_82_"></path>
                        <polygon id="XMLID_71_" fill="#1A237E" opacity="0.2" points="110.8 129.5 110.4 128.7 92.9 159 0.9 0 0 0 92.9 160.6"></polygon>
                        <path d="M122.5,90.6 L70.1,0 L0,0 L57.8,100 L0,200 L70.1,200 L122.5,109.4 C125.8,103.6 125.8,96.4 122.5,90.6 L122.5,90.6 Z" id="XMLID_69_"></path>
                        <path d="M70.1,1.6 L122.5,92.2 C124,94.9 124.8,97.8 125,100.8 C125.1,97.3 124.3,93.8 122.5,90.6 L70.1,0 L0,0 L0.9,1.6 L70.1,1.6 L70.1,1.6 Z" id="XMLID_67_" fill="#FFFFFF" opacity="0.2"></path>
                        <path d="M122.5,90.6 L70.1,0 L0,0 L57.8,100 L0,200 L70.1,200 L122.5,109.4 C125.8,103.6 125.8,96.4 122.5,90.6 L122.5,90.6 Z" id="XMLID_66_"></path>
                        <path d="M110.8,129.5 L122.4,109.4 C124.2,106.3 125,102.7 124.9,99.2 C124.8,102.2 124,105.1 122.4,107.8 L110.3,128.7 L110.8,129.5 L110.8,129.5 Z" id="XMLID_65_" fill="#3E2723" opacity="0.2"></path>
                        <path d="M122.5,90.6 L70.1,0 L0,0 L57.8,100 L0,200 L70.1,200 L122.5,109.4 C125.8,103.6 125.8,96.4 122.5,90.6 L122.5,90.6 Z" id="XMLID_64_"></path>
                        <path d="M122.5,90.6 L70.1,0 L0,0 L57.8,100 L0,200 L70.1,200 L122.5,109.4 C125.8,103.6 125.8,96.4 122.5,90.6 L122.5,90.6 Z" id="XMLID_63_" fill="url(#radialGradient-3)"></path>
                    </g>
                </g>
            </g>
            <polygon id="path4218" fill="#FFFFFF" points="226.8153 122.31749 226.8153 190.95137 216.76066 190.95137 216.76066 122.31749 194.90274 122.31749 194.90274 112.7 248.67323 112.7 248.67323 122.31749 226.8153 122.31749"></polygon>
            <path d="M257.31394,112.7 L267.36859,112.7 L267.36859,137.39946 L266.93143,144.83115 L267.36859,144.83115 C268.898643,142.208197 271.230153,140.022403 274.36312,138.27377 C277.568947,136.525137 280.884067,135.65082 284.30848,135.65082 C290.865853,135.65082 295.893173,137.545173 299.39044,141.33388 C302.960573,145.049727 304.74564,150.36849 304.74564,157.29017 L304.74564,190.95137 L294.69099,190.95137 L294.69099,159.25738 C294.69099,149.639893 290.428693,144.83115 281.9041,144.83115 C277.82396,144.83115 274.363123,146.543353 271.52159,149.96776 C268.752923,153.319313 267.36859,157.25374 267.36859,161.77104 L267.36859,190.95137 L257.31394,190.95137 L257.31394,112.7 L257.31394,112.7 Z" id="path4220" fill="#FFFFFF"></path>
            <path d="M340.6985,192.7 C332.829647,192.7 326.34513,190.00419 321.24495,184.61257 C316.14477,179.22095 313.59468,172.408563 313.59468,164.17541 C313.59468,156.015123 316.07191,149.239167 321.02637,143.84754 C325.980837,138.38306 332.319637,135.65082 340.04277,135.65082 C347.984477,135.65082 354.286843,138.237343 358.94987,143.41039 C363.685757,148.51057 366.0537,155.687253 366.0537,164.94044 L365.94441,166.03334 L323.8679,166.03334 C324.01362,171.27924 325.762253,175.505103 329.1138,178.71093 C332.465353,181.916763 336.47264,183.51968 341.13566,183.51968 C347.54732,183.51968 352.574643,180.31385 356.21763,173.90219 L365.17938,178.27377 C362.775007,182.791077 359.423457,186.324777 355.12473,188.87487 C350.89887,191.424957 346.090127,192.7 340.6985,192.7 L340.6985,192.7 Z M324.63293,157.72733 L355.34331,157.72733 C355.05187,154.011483 353.521817,150.951373 350.75315,148.547 C348.057337,146.069767 344.41435,144.83115 339.82419,144.83115 C336.035483,144.83115 332.756793,145.996907 329.98812,148.32842 C327.292313,150.659933 325.50725,153.792903 324.63293,157.72733 L324.63293,157.72733 Z" id="path4222" fill="#FFFFFF"></path>
            <polygon id="path4224" fill="#FFFFFF" points="411.06565 190.95137 401.011 190.95137 401.011 112.7 413.25144 112.7 451.28423 173.57432 451.72139 173.57432 451.28423 158.49235 451.28423 112.7 461.33887 112.7 461.33887 190.95137 450.84707 190.95137 411.06565 127.12623 410.62849 127.12623 411.06565 142.2082"></polygon>
            <path d="M499.29653,192.7 C491.427677,192.7 484.94316,190.00419 479.84298,184.61257 C474.7428,179.22095 472.19271,172.408563 472.19271,164.17541 C472.19271,156.015123 474.66994,149.239167 479.6244,143.84754 C484.578867,138.38306 490.917667,135.65082 498.6408,135.65082 C506.582507,135.65082 512.884873,138.237343 517.5479,143.41039 C522.283787,148.51057 524.65173,155.687253 524.65173,164.94044 L524.54244,166.03334 L482.46593,166.03334 C482.61165,171.27924 484.360283,175.505103 487.71183,178.71093 C491.063383,181.916763 495.07067,183.51968 499.73369,183.51968 C506.14535,183.51968 511.172673,180.31385 514.81566,173.90219 L523.77741,178.27377 C521.373037,182.791077 518.021487,186.324777 513.72276,188.87487 C509.4969,191.424957 504.688157,192.7 499.29653,192.7 L499.29653,192.7 Z M483.23096,157.72733 L513.94134,157.72733 C513.6499,154.011483 512.119847,150.951373 509.35118,148.547 C506.655367,146.069767 503.01238,144.83115 498.42222,144.83115 C494.633513,144.83115 491.354823,145.996907 488.58615,148.32842 C485.890343,150.659933 484.10528,153.792903 483.23096,157.72733 L483.23096,157.72733 Z" id="path4226" fill="#FFFFFF"></path>
            <path d="M553.23436,191.82569 C548.862773,191.82569 545.219787,190.477783 542.3054,187.78197 C539.463867,185.086163 538.00667,181.333887 537.93381,176.52514 L537.93381,146.57978 L528.53491,146.57978 L528.53491,137.39946 L537.93381,137.39946 L537.93381,121.00601 L547.98846,121.00601 L547.98846,137.39946 L561.10321,137.39946 L561.10321,146.57978 L547.98846,146.57978 L547.98846,173.24645 C547.98846,176.816577 548.680627,179.25738 550.06496,180.56886 C551.4493,181.807473 553.015787,182.42678 554.76442,182.42678 C555.565873,182.42678 556.3309,182.35392 557.0595,182.2082 C557.860953,181.98962 558.58955,181.73461 559.24529,181.44317 L562.41469,190.40492 C559.791737,191.3521 556.731627,191.82569 553.23436,191.82569 L553.23436,191.82569 Z" id="path4228" fill="#FFFFFF"></path>
            <path d="M571.30815,112.7 L581.36279,112.7 L581.36279,137.39946 L580.92563,144.83115 L581.36279,144.83115 C582.892843,142.208197 585.224357,140.022403 588.35733,138.27377 C591.563157,136.525137 594.878273,135.65082 598.30268,135.65082 C604.86006,135.65082 609.887383,137.545173 613.38465,141.33388 C616.954777,145.049727 618.73984,150.36849 618.73984,157.29017 L618.73984,190.95137 L608.6852,190.95137 L608.6852,159.25738 C608.6852,149.639893 604.422903,144.83115 595.89831,144.83115 C591.818163,144.83115 588.357327,146.543353 585.5158,149.96776 C582.747127,153.319313 581.36279,157.25374 581.36279,161.77104 L581.36279,190.95137 L571.30815,190.95137 L571.30815,112.7 L571.30815,112.7 Z" id="path4230" fill="#FFFFFF"></path>
            <path d="M654.69271,192.7 C646.823857,192.7 640.33934,190.00419 635.23916,184.61257 C630.13898,179.22095 627.58889,172.408563 627.58889,164.17541 C627.58889,156.015123 630.06612,149.239167 635.02058,143.84754 C639.975047,138.38306 646.313847,135.65082 654.03698,135.65082 C661.978687,135.65082 668.281053,138.237343 672.94408,143.41039 C677.67996,148.51057 680.0479,155.687253 680.0479,164.94044 L679.93862,166.03334 L637.86211,166.03334 C638.00783,171.27924 639.756463,175.505103 643.10801,178.71093 C646.459563,181.916763 650.46685,183.51968 655.12987,183.51968 C661.54153,183.51968 666.568853,180.31385 670.21184,173.90219 L679.17359,178.27377 C676.769217,182.791077 673.417667,186.324777 669.11894,188.87487 C664.893073,191.424957 660.08433,192.7 654.69271,192.7 L654.69271,192.7 Z M638.62714,157.72733 L669.33752,157.72733 C669.04608,154.011483 667.516027,150.951373 664.74736,148.547 C662.051547,146.069767 658.40856,144.83115 653.8184,144.83115 C650.029693,144.83115 646.751003,145.996907 643.98233,148.32842 C641.286517,150.659933 639.501453,153.792903 638.62714,157.72733 L638.62714,157.72733 Z" id="path4232" fill="#FFFFFF"></path>
            <path d="M699.19064,190.95137 L689.136,190.95137 L689.136,137.39946 L698.75348,137.39946 L698.75348,146.14263 L699.19064,146.14263 C700.21068,143.301097 702.287183,140.896723 705.42015,138.92951 C708.625977,136.889437 711.758947,135.8694 714.81906,135.8694 C717.733447,135.8694 720.210677,136.30656 722.25075,137.18088 L719.19064,146.90765 C717.952027,146.397637 715.984813,146.14263 713.289,146.14263 C709.500293,146.14263 706.185177,147.672683 703.34365,150.73279 C700.574977,153.792897 699.19064,157.363023 699.19064,161.44317 L699.19064,190.95137 L699.19064,190.95137 Z" id="path4234" fill="#FFFFFF"></path>
            <polygon id="path4236" fill="#FFFFFF" points="739.53387 112.7 739.53387 190.95137 729.47923 190.95137 729.47923 112.7"></polygon>
            <path d="M758.36071,174.55793 C758.36071,177.180877 759.453607,179.366667 761.6394,181.1153 C763.898053,182.86394 766.521007,183.73826 769.50826,183.73826 C773.73412,183.73826 777.486397,182.171773 780.76509,179.0388 C784.116637,175.905833 785.79241,172.226417 785.79241,168.00055 C782.659437,165.523317 778.28785,164.2847 772.67765,164.2847 C768.59751,164.2847 765.173103,165.268307 762.40443,167.23552 C759.708617,169.202733 758.36071,171.643537 758.36071,174.55793 L758.36071,174.55793 Z M771.36618,135.65082 C778.797873,135.65082 784.663083,137.654463 788.96181,141.66175 C793.260537,145.596177 795.4099,151.02423 795.4099,157.94591 L795.4099,190.95137 L785.79241,190.95137 L785.79241,183.51968 L785.35525,183.51968 C781.202243,189.639893 775.664903,192.7 768.74323,192.7 C762.84159,192.7 757.887127,190.951367 753.87984,187.4541 C749.945413,183.956833 747.9782,179.58525 747.9782,174.33935 C747.9782,168.80201 750.054703,164.393993 754.20771,161.1153 C758.433577,157.836613 764.043777,156.19727 771.03831,156.19727 C777.01281,156.19727 781.930843,157.290167 785.79241,159.47596 L785.79241,157.18088 C785.79241,153.683613 784.408073,150.732793 781.6394,148.32842 C778.870733,145.851187 775.628477,144.61257 771.91263,144.61257 C766.30243,144.61257 761.857983,146.980513 758.57929,151.7164 L749.72683,146.14263 C754.608437,139.14809 761.821553,135.65082 771.36618,135.65082 L771.36618,135.65082 Z" id="path4238" fill="#FFFFFF"></path>
            <path d="M806.75041,137.39946 L816.36789,137.39946 L816.36789,144.83115 L816.80505,144.83115 C818.335103,142.208197 820.666617,140.022403 823.79959,138.27377 C827.005417,136.525137 830.320533,135.65082 833.74494,135.65082 C840.30232,135.65082 845.329643,137.545173 848.82691,141.33388 C852.397037,145.049727 854.1821,150.36849 854.1821,157.29017 L854.1821,190.95137 L844.12746,190.95137 L844.12746,157.94591 C843.90888,149.202737 839.500863,144.83115 830.90341,144.83115 C826.896123,144.83115 823.544577,146.470493 820.84877,149.74918 C818.152957,152.955013 816.80505,156.81658 816.80505,161.33388 L816.80505,190.95137 L806.75041,190.95137 L806.75041,137.39946 L806.75041,137.39946 Z" id="path4240" fill="#FFFFFF"></path>
            <path d="M890.135,183.51968 C895.089467,183.51968 899.133183,181.734613 902.26615,178.16448 C905.544837,174.594353 907.18418,169.93133 907.18418,164.17541 C907.18418,158.56521 905.544837,153.938617 902.26615,150.29563 C899.060323,146.652643 895.016607,144.83115 890.135,144.83115 C885.32626,144.83115 881.282547,146.652643 878.00386,150.29563 C874.725167,153.938617 873.08582,158.56521 873.08582,164.17541 C873.08582,169.85847 874.725167,174.485067 878.00386,178.0552 C881.282547,181.698187 885.32626,183.51968 890.135,183.51968 L890.135,183.51968 Z M888.49566,192.7 C881.501127,192.7 875.490197,189.93133 870.46287,184.39399 C865.50841,178.78379 863.03118,172.044263 863.03118,164.17541 C863.03118,156.306557 865.50841,149.56703 870.46287,143.95683 C875.490197,138.41949 881.501127,135.65082 888.49566,135.65082 C892.430087,135.65082 896.000213,136.488707 899.20604,138.16448 C902.484733,139.84026 904.998397,142.062483 906.74703,144.83115 L907.18418,144.83115 L906.74703,137.39946 L906.74703,112.7 L916.80167,112.7 L916.80167,190.95137 L907.18418,190.95137 L907.18418,183.51968 L906.74703,183.51968 C904.998397,186.288347 902.484733,188.510567 899.20604,190.18634 C896.000213,191.862113 892.430087,192.7 888.49566,192.7 L888.49566,192.7 Z" id="path4242" fill="#FFFFFF"></path>
            <path d="M969.40412,176.08798 C969.40412,180.751007 967.364047,184.685433 963.2839,187.89126 C959.203753,191.097087 954.06714,192.7 947.87406,192.7 C942.48244,192.7 937.746557,191.315667 933.66641,188.547 C929.586263,185.705467 926.671873,181.98962 924.92324,177.39946 L933.88499,173.57432 C935.19647,176.780147 937.090823,179.293807 939.56805,181.1153 C942.118143,182.86394 944.886813,183.73826 947.87406,183.73826 C951.079893,183.73826 953.739277,183.04609 955.85221,181.66175 C958.037997,180.277417 959.13089,178.638073 959.13089,176.74372 C959.13089,173.319313 956.50794,170.805653 951.26204,169.20274 L942.08171,166.90765 C931.66277,164.284703 926.4533,159.257383 926.4533,151.82569 C926.4533,146.944083 928.420513,143.046087 932.35494,140.1317 C936.362227,137.144447 941.462407,135.65082 947.65548,135.65082 C952.391367,135.65082 956.653663,136.780147 960.44237,139.0388 C964.303937,141.297453 966.999747,144.321133 968.5298,148.10984 L959.56805,151.82569 C958.548017,149.567037 956.872243,147.8184 954.54073,146.57978 C952.282077,145.268307 949.731987,144.61257 946.89046,144.61257 C944.267507,144.61257 941.899563,145.268307 939.78663,146.57978 C937.746557,147.89126 936.72652,149.494177 936.72652,151.38853 C936.72652,154.448637 939.60448,156.63443 945.3604,157.94591 L953.44783,160.02241 C964.085357,162.645357 969.40412,168.000547 969.40412,176.08798 L969.40412,176.08798 Z" id="path4244" fill="#FFFFFF"></path>
            <path d="M275.4754,51.771389 C275.4754,62.7072183 272.231103,71.419429 265.74251,77.908021 C258.451957,85.636007 248.86488,89.5 236.98128,89.5 C225.60802,89.5 215.98449,85.5631013 208.11069,77.689304 C200.236897,69.8155073 196.3,60.1190723 196.3,48.599999 C196.3,37.0809257 200.236897,27.3844903 208.11069,19.510693 C215.98449,11.6368963 225.60802,7.699998 236.98128,7.699998 C242.740813,7.699998 248.172277,8.72067533 253.27567,10.76203 C258.379057,12.8033847 262.571123,15.683153 265.85187,19.401335 L258.63422,26.618982 C256.22834,23.7027607 253.093403,21.4426893 249.22941,19.838768 C245.438323,18.1619407 241.355613,17.323527 236.98128,17.323527 C228.451333,17.323527 221.233687,20.276201 215.32834,26.181549 C209.495893,32.1598023 206.57967,39.632619 206.57967,48.599999 C206.57967,57.5673783 209.495893,65.0401947 215.32834,71.018448 C221.233687,76.923796 228.451333,79.87647 236.98128,79.87647 C244.782173,79.87647 251.270767,77.6893043 256.44706,73.314973 C261.623347,68.940641 264.612473,62.9259347 265.41444,55.270854 L236.98128,55.270854 L236.98128,45.866041 L274.92861,45.866041 C275.293137,47.9073963 275.4754,49.8758457 275.4754,51.771389 L275.4754,51.771389 Z" id="path4243" fill="#FFFFFF"></path>
            <path d="M286.6996,87.750267 L286.6996,9.44973 L310.64907,9.44973 C322.605577,9.44973 332.192653,13.0585537 339.4103,20.276201 C346.700853,27.4938483 350.34613,36.9351143 350.34613,48.599999 C350.34613,60.337789 346.700853,69.8155073 339.4103,77.033154 C332.192653,84.177896 322.605577,87.750267 310.64907,87.750267 L286.6996,87.750267 L286.6996,87.750267 Z M296.76057,19.07326 L296.76057,78.126737 L310.64907,78.126737 C319.762257,78.126737 326.94345,75.538591 332.19265,70.362299 C337.44185,65.113101 340.06645,57.859001 340.06645,48.599999 C340.06645,39.4139023 337.44185,32.196255 332.19265,26.947057 C326.94345,21.697859 319.762257,19.07326 310.64907,19.07326 L296.76057,19.07326 L296.76057,19.07326 Z" id="path4245" fill="#FFFFFF"></path>
            <path d="M436.65847,51.771389 C436.65847,62.7072183 433.414177,71.419429 426.92559,77.908021 C419.635037,85.636007 410.047957,89.5 398.16435,89.5 C386.79109,89.5 377.167563,85.5631013 369.29377,77.689304 C361.41997,69.8155073 357.48307,60.1190723 357.48307,48.599999 C357.48307,37.0809257 361.41997,27.3844903 369.29377,19.510693 C377.167563,11.6368963 386.79109,7.699998 398.16435,7.699998 C403.92389,7.699998 409.355353,8.72067533 414.45874,10.76203 C419.562127,12.8033847 423.754193,15.683153 427.03494,19.401335 L419.8173,26.618982 C417.411413,23.7027607 414.276473,21.4426893 410.41248,19.838768 C406.621393,18.1619407 402.538683,17.323527 398.16435,17.323527 C389.634403,17.323527 382.416757,20.276201 376.51141,26.181549 C370.67897,32.1598023 367.76275,39.632619 367.76275,48.599999 C367.76275,57.5673783 370.67897,65.0401947 376.51141,71.018448 C382.416757,76.923796 389.634403,79.87647 398.16435,79.87647 C405.965243,79.87647 412.453837,77.6893043 417.63013,73.314973 C422.806423,68.940641 425.79555,62.9259347 426.59751,55.270854 L398.16435,55.270854 L398.16435,45.866041 L436.11168,45.866041 C436.476207,47.9073963 436.65847,49.8758457 436.65847,51.771389 L436.65847,51.771389 Z" id="path4247" fill="#FFFFFF"></path>
            <path d="M471.0184,87.750267 L471.0184,9.44973 L494.96787,9.44973 C506.924377,9.44973 516.511453,13.0585537 523.7291,20.276201 C531.019653,27.4938483 534.66493,36.9351143 534.66493,48.599999 C534.66493,60.337789 531.019653,69.8155073 523.7291,77.033154 C516.511453,84.177896 506.924377,87.750267 494.96787,87.750267 L471.0184,87.750267 L471.0184,87.750267 Z M481.07937,19.07326 L481.07937,78.126737 L494.96787,78.126737 C504.081063,78.126737 511.262257,75.538591 516.51145,70.362299 C521.76065,65.113101 524.38525,57.859001 524.38525,48.599999 C524.38525,39.4139023 521.76065,32.196255 516.51145,26.947057 C511.262257,21.697859 504.081063,19.07326 494.96787,19.07326 L481.07937,19.07326 L481.07937,19.07326 Z" id="path4249" fill="#FFFFFF"></path>
            <path d="M566.22978,89.5 C558.35598,89.5 551.867387,86.8024953 546.764,81.407486 C541.660613,76.0124773 539.10892,69.1958107 539.10892,60.957486 C539.10892,52.7920667 541.58771,46.0118523 546.54529,40.616843 C551.502863,35.1489283 557.845643,32.414971 565.57363,32.414971 C573.52033,32.414971 579.826657,35.0031173 584.49261,40.17941 C589.23147,45.2827973 591.6009,52.463992 591.6009,61.722994 L591.49154,62.816577 L549.3886,62.816577 C549.534413,68.065775 551.284147,72.2942953 554.6378,75.502138 C557.991453,78.7099813 562.001257,80.313903 566.66721,80.313903 C573.082897,80.313903 578.11338,77.10606 581.75866,70.690374 L590.72604,75.064705 C588.320153,79.5848477 584.966497,83.1207657 580.66507,85.672459 C576.43655,88.224153 571.624787,89.5 566.22978,89.5 L566.22978,89.5 Z M550.15411,54.505346 L580.88379,54.505346 C580.59217,50.7871647 579.061153,47.7251327 576.29074,45.31925 C573.593233,42.840462 569.947957,41.601068 565.35491,41.601068 C561.563823,41.601068 558.283077,42.7675563 555.51267,45.100533 C552.815163,47.4335103 551.028977,50.568448 550.15411,54.505346 L550.15411,54.505346 Z" id="path4251" fill="#FFFFFF"></path>
            <polygon id="path4253" fill="#FFFFFF" points="624.65404 87.750267 614.59308 87.750267 592.94013 34.164704 603.87596 34.164704 619.62356 75.720855 619.84227 75.720855 635.80858 34.164704 646.5257 34.164704 624.65404 87.750267"></polygon>
            <polygon id="path4255" fill="#FFFFFF" points="663.90301 54.177271 663.90301 87.750267 653.84204 87.750267 653.84204 9.44973 699.55381 9.44973 699.55381 19.07326 663.90301 19.07326 663.90301 44.772458 696.05434 44.772458 696.05434 54.177271 663.90301 54.177271"></polygon>
            <path d="M728.97593,89.5 C721.102137,89.5 714.613547,86.8024953 709.51016,81.407486 C704.406773,76.0124773 701.85508,69.1958107 701.85508,60.957486 C701.85508,52.7920667 704.333867,46.0118523 709.29144,40.616843 C714.249013,35.1489283 720.591793,32.414971 728.31978,32.414971 C736.266487,32.414971 742.572817,35.0031173 747.23877,40.17941 C751.97763,45.2827973 754.34706,52.463992 754.34706,61.722994 L754.2377,62.816577 L712.13476,62.816577 C712.280567,68.065775 714.030297,72.2942953 717.38395,75.502138 C720.73761,78.7099813 724.747417,80.313903 729.41337,80.313903 C735.829057,80.313903 740.859537,77.10606 744.50481,70.690374 L753.47219,75.064705 C751.06631,79.5848477 747.712657,83.1207657 743.41123,85.672459 C739.18271,88.224153 734.370943,89.5 728.97593,89.5 L728.97593,89.5 Z M712.90026,54.505346 L743.62994,54.505346 C743.33832,50.7871647 741.807307,47.7251327 739.0369,45.31925 C736.339393,42.840462 732.694117,41.601068 728.10107,41.601068 C724.309983,41.601068 721.029233,42.7675563 718.25882,45.100533 C715.561313,47.4335103 713.775127,50.568448 712.90026,54.505346 L712.90026,54.505346 Z" id="path4257" fill="#FFFFFF"></path>
            <path d="M804.09102,72.877539 C804.09102,77.543493 802.049667,81.4803917 797.96696,84.688235 C793.884247,87.8960783 788.744407,89.5 782.54744,89.5 C777.152427,89.5 772.413567,88.114795 768.33086,85.344385 C764.248147,82.501069 761.331923,78.782887 759.58219,74.189839 L768.54957,70.362299 C769.86187,73.5701417 771.757417,76.0853823 774.23621,77.908021 C776.787903,79.6577537 779.558313,80.53262 782.54744,80.53262 C785.75528,80.53262 788.41633,79.8400173 790.53059,78.454812 C792.717757,77.0696073 793.81134,75.429233 793.81134,73.533689 C793.81134,70.107129 791.18674,67.5918883 785.93754,65.987967 L776.75145,63.691443 C766.325957,61.0668437 761.11321,56.0363623 761.11321,48.599999 C761.11321,43.7153283 763.08166,39.8148823 767.01856,36.898661 C771.02836,33.9095343 776.131747,32.414971 782.32872,32.414971 C787.06758,32.414971 791.332553,33.545007 795.12364,35.805079 C798.987633,38.0651503 801.685137,41.0907297 803.21615,44.881817 L794.24877,48.599999 C793.228097,46.3399277 791.55127,44.590195 789.21829,43.350801 C786.958217,42.038501 784.406523,41.382351 781.56321,41.382351 C778.93861,41.382351 776.56918,42.038501 774.45492,43.350801 C772.413567,44.6631003 771.39289,46.2670217 771.39289,48.162565 C771.39289,51.2245977 774.27266,53.4117637 780.0322,54.724063 L788.12471,56.80187 C798.768917,59.4264693 804.09102,64.7850257 804.09102,72.877539 L804.09102,72.877539 Z" id="path4259" fill="#FFFFFF"></path>
            <path d="M832.42296,88.625133 C828.048627,88.625133 824.40335,87.276381 821.48713,84.578877 C818.643817,81.8813723 817.185707,78.1267377 817.1128,73.314973 L817.1128,43.350801 L807.70799,43.350801 L807.70799,34.164704 L817.1128,34.164704 L817.1128,17.76096 L827.17376,17.76096 L827.17376,34.164704 L840.29676,34.164704 L840.29676,43.350801 L827.17376,43.350801 L827.17376,70.034224 C827.17376,73.6065947 827.866363,76.0489297 829.25157,77.361229 C830.636777,78.600623 832.204247,79.22032 833.95398,79.22032 C834.75594,79.22032 835.521447,79.1474147 836.2505,79.001604 C837.05246,78.7828873 837.781517,78.527718 838.43767,78.236096 L841.60906,87.203476 C838.98446,88.1512473 835.922427,88.625133 832.42296,88.625133 L832.42296,88.625133 Z" id="path4261" fill="#FFFFFF"></path>
        </g>
    </g>
</svg>